<svg xmlns="http://www.w3.org/2000/svg" width="480" height="480" viewBox="0 0 100 100"><g fill="#cbd7e0" fill-opacity=".14"><circle cx="33.4" cy="17.2" r="2.6"/><circle cx="7.5" cy="80.2" r="0.8"/><circle cx="37.4" cy="8.5" r="2"/><circle cx="23.2" cy="11.1" r="1.6"/><circle cx="9.6" cy="11.5" r="1.6"/><circle cx="8.6" cy="56.2" r="1"/><circle cx="62.3" cy="57.8" r="0.8"/><circle cx="57.2" cy="40.3" r="1"/><circle cx="42.4" cy="53.8" r="2"/><circle cx="32.0" cy="79.7" r="1"/><circle cx="56.1" cy="61.2" r="1.6"/><circle cx="67.0" cy="43.2" r="1.2"/><circle cx="46.8" cy="89.8" r="1.2"/><circle cx="76.3" cy="10.7" r="1.2"/><circle cx="45.2" cy="60.2" r="0.8"/><circle cx="14.1" cy="42.3" r="3.2"/><circle cx="35.2" cy="90.7" r="1.6"/><circle cx="6.7" cy="65.8" r="3.2"/><circle cx="55.5" cy="77.2" r="3.2"/><circle cx="32.5" cy="68.4" r="2"/><circle cx="82.0" cy="91.8" r="1.6"/><circle cx="68.5" cy="9.1" r="2.6"/><circle cx="68.9" cy="63.8" r="2.6"/><circle cx="80.3" cy="29.8" r="1.6"/><circle cx="86.4" cy="35.6" r="1.6"/><circle cx="36.4" cy="60.4" r="1.6"/><circle cx="49.7" cy="18.6" r="1.6"/><circle cx="42.0" cy="36.7" r="1.6"/><circle cx="93.0" cy="17.2" r="1"/><circle cx="17.2" cy="64.9" r="0.8"/><circle cx="67.9" cy="51.5" r="2"/><circle cx="64.6" cy="72.5" r="1.6"/><circle cx="87.6" cy="76.3" r="3.2"/><circle cx="40.6" cy="20.9" r="1"/></g></svg>
